<svg width="80" height="34" viewBox="0 0 80 34" fill="none" xmlns="http://www.w3.org/2000/svg">
<path d="M21.1978 21.1978H0V0H21.1978V21.1978ZM1.4882 19.7096H19.7111V1.48675H1.4882V19.7096Z" fill="black"/>
<path d="M40.7984 21.1978H19.6006V0H40.7984V21.1978ZM21.0888 19.7096H39.3117V1.48675H21.0888V19.7096Z" fill="black"/>
<path d="M60.399 21.1978H39.2012V0H60.399V21.1978ZM40.6894 19.7096H58.9123V1.48675H40.6894V19.7096Z" fill="black"/>
<path d="M79.9996 21.1978H58.8018V0H79.9996V21.1978ZM60.29 19.7096H78.5129V1.48675H60.29V19.7096Z" fill="black"/>
<path d="M7.24609 6.63574H13.9133V8.19074H11.4842V15.0858H9.67659V8.19074H7.24755V6.63574H7.24609Z" fill="black"/>
<path d="M27.3266 6.63519H32.9789V8.19018H29.127V10.0864H32.2529V11.5746H29.127V13.5303H33.1052V15.0853H27.3193V6.62793L27.3266 6.63519Z" fill="black"/>
<path d="M46.4961 6.63574H53.1632V8.19074H50.7342V15.0858H48.9266V8.19074H46.4975V6.63574H46.4961Z" fill="black"/>
<path d="M70.0158 6.63574C70.6155 6.63574 71.157 6.7548 71.6303 6.98565C72.0964 7.21651 72.4594 7.54319 72.7265 7.96714C72.9777 8.39836 73.1113 8.89636 73.1113 9.45535C73.1113 10.0143 72.9777 10.4818 72.7265 10.8913C72.4594 11.3007 72.1124 11.6129 71.6666 11.8365L73.3262 15.0946H71.3254L69.9185 12.2532H68.3926V15.0946H66.585V6.6372H70.0144L70.0158 6.63574ZM68.394 10.7417H69.875C70.2975 10.7417 70.63 10.6299 70.8826 10.3918C71.1338 10.161 71.2674 9.84882 71.2674 9.44664C71.2674 9.04446 71.1338 8.7323 70.8826 8.49419C70.6314 8.26333 70.2902 8.14428 69.875 8.14428H68.394V10.7403V10.7417Z" fill="black"/>
<path opacity="0.9" d="M0.61385 26.6037C0.860674 26.1101 1.21785 25.734 1.68391 25.4596C2.14126 25.1852 2.68137 25.0487 3.29407 25.0487C3.99825 25.0487 4.59353 25.2404 5.0683 25.6251C5.54308 26.0099 5.84507 26.5398 5.97429 27.199H5.17865C5.05959 26.7605 4.83164 26.4121 4.4919 26.1565C4.1536 25.9097 3.74126 25.7819 3.25777 25.7819C2.8193 25.7819 2.42583 25.8923 2.09625 26.1028C1.75795 26.322 1.50097 26.6153 1.31803 26.9986C1.13509 27.3834 1.05233 27.8132 1.05233 28.3068C1.05233 28.8005 1.13509 29.2302 1.31803 29.615C1.50097 29.9997 1.7565 30.3017 2.09625 30.5108C2.42583 30.73 2.8193 30.8317 3.25777 30.8317C3.75142 30.8317 4.16376 30.7126 4.4919 30.4658C4.82148 30.219 5.04072 29.872 5.16848 29.4146H5.96413C5.83636 30.0825 5.54308 30.6037 5.0683 30.9885C4.59353 31.3732 4.00696 31.5649 3.29407 31.5649C2.68137 31.5649 2.14126 31.4371 1.68391 31.1627C1.21785 30.8883 0.860674 30.5137 0.61385 30.0186C0.358314 29.525 0.239258 28.9573 0.239258 28.3083C0.239258 27.6593 0.358314 27.1003 0.61385 26.6066V26.6037ZM7.8037 31.26C7.45669 31.0582 7.18228 30.7838 6.98918 30.4179C6.78736 30.0607 6.69589 29.6498 6.69589 29.1736C6.69589 28.6974 6.78736 28.2952 6.98918 27.9293C7.18083 27.5721 7.45524 27.289 7.8037 27.0872C8.15215 26.8854 8.55433 26.7852 9.01168 26.7852C9.46903 26.7852 9.8625 26.8854 10.2095 27.0872C10.5565 27.289 10.8309 27.5721 11.0327 27.9293C11.2244 28.2952 11.326 28.7061 11.326 29.1736C11.326 29.6411 11.2258 30.0607 11.0327 30.4179C10.8309 30.7838 10.5565 31.0582 10.2095 31.26C9.8625 31.4618 9.45887 31.562 9.01168 31.562C8.5645 31.562 8.15215 31.4618 7.8037 31.26ZM9.81604 30.6749C10.0541 30.5282 10.2371 30.3279 10.3649 30.0622C10.4926 29.8066 10.5565 29.5046 10.5565 29.175C10.5565 28.8455 10.4926 28.5536 10.3649 28.2879C10.2371 28.0324 10.0541 27.8219 9.81604 27.6752C9.57792 27.5286 9.31368 27.456 9.01168 27.456C8.70969 27.456 8.43527 27.5286 8.19716 27.6752C7.95905 27.8219 7.78627 28.0324 7.65705 28.2879C7.52928 28.5536 7.4654 28.8455 7.4654 29.175C7.4654 29.5046 7.52928 29.8066 7.65705 30.0622C7.78482 30.3279 7.95905 30.5282 8.19716 30.6749C8.43527 30.8215 8.70098 30.8941 9.01168 30.8941C9.32239 30.8941 9.57938 30.8215 9.81604 30.6749ZM12.1856 25.1039H12.9362V31.5068H12.1856V25.1039ZM13.9627 25.1039H14.7133V31.5068H13.9627V25.1039ZM15.8502 27.9206C16.0331 27.5634 16.2988 27.289 16.6371 27.0887C16.9667 26.8868 17.35 26.7867 17.7899 26.7867C18.2298 26.7867 18.5943 26.8781 18.9239 27.0524C19.2534 27.2353 19.509 27.4908 19.7006 27.8204C19.8836 28.1587 19.9837 28.5522 20.0026 29.0008C20.0026 29.0734 19.9939 29.175 19.9837 29.3202H16.3612V29.3841C16.3699 29.8415 16.5079 30.2074 16.7823 30.4818C17.048 30.7562 17.395 30.8941 17.8335 30.8941C18.1631 30.8941 18.4462 30.8113 18.6843 30.6473C18.9224 30.4832 19.0778 30.2451 19.1605 29.9431H19.9199C19.8284 30.4193 19.599 30.8128 19.2331 31.1133C18.8672 31.4139 18.4186 31.562 17.8886 31.562C17.4226 31.562 17.0204 31.4705 16.6719 31.2687C16.3249 31.0669 16.0505 30.7925 15.8574 30.4266C15.6658 30.0607 15.5743 29.6498 15.5743 29.1736C15.5743 28.6974 15.6658 28.2865 15.8487 27.9206H15.8502ZM19.2259 28.6974C19.1896 28.3039 19.0342 27.9932 18.7772 27.774C18.5217 27.5547 18.1921 27.4444 17.7986 27.4444C17.4415 27.4444 17.1307 27.5634 16.865 27.7914C16.5906 28.0295 16.444 28.3315 16.4077 28.6974H19.2244H19.2259ZM25.2861 26.8404V31.2774C25.2861 32.6858 24.5093 33.3899 22.9718 33.3899C22.3678 33.3899 21.8741 33.2535 21.4894 32.979C21.1046 32.7046 20.8854 32.3199 20.8302 31.8088H21.5983C21.6534 32.1021 21.8088 32.33 22.0643 32.4854C22.3112 32.6495 22.632 32.7235 23.024 32.7235C24.0302 32.7235 24.534 32.2386 24.534 31.2513V30.7025C24.1957 31.2789 23.6643 31.562 22.934 31.562C22.4955 31.562 22.1108 31.4705 21.7725 31.2789C21.4342 31.0959 21.1685 30.8215 20.9769 30.4556C20.7852 30.0985 20.6937 29.6687 20.6937 29.175C20.6937 28.709 20.7852 28.2966 20.9769 27.9308C21.1685 27.5736 21.4342 27.2905 21.7812 27.0887C22.1195 26.8868 22.5043 26.7867 22.934 26.7867C23.3086 26.7867 23.6295 26.8694 23.9039 27.0146C24.1696 27.1612 24.3801 27.3718 24.5355 27.6462L24.6357 26.8418H25.2847L25.2861 26.8404ZM23.8037 30.6821C24.0418 30.5355 24.2248 30.3351 24.3525 30.0781C24.4803 29.8226 24.5442 29.5206 24.5442 29.191C24.5442 28.8614 24.4803 28.5594 24.3525 28.2952C24.2248 28.0295 24.0418 27.819 23.8037 27.6738C23.5656 27.5286 23.2999 27.4545 23.0081 27.4545C22.542 27.4545 22.166 27.6186 21.8828 27.9395C21.5997 28.2603 21.4618 28.6712 21.4618 29.175C21.4618 29.6789 21.5997 30.0985 21.8828 30.4193C22.166 30.7387 22.542 30.8956 23.0081 30.8956C23.3014 30.8956 23.5656 30.8317 23.8037 30.685V30.6821ZM26.4171 27.9191C26.6001 27.562 26.8658 27.2876 27.2041 27.0872C27.5337 26.8854 27.917 26.7852 28.3569 26.7852C28.7968 26.7852 29.1613 26.8767 29.4908 27.0509C29.8204 27.2338 30.076 27.4894 30.2676 27.819C30.4505 28.1573 30.5507 28.5507 30.5696 28.9994C30.5696 29.072 30.5609 29.1736 30.5507 29.3188H26.9282V29.3827C26.9369 29.84 27.0749 30.2059 27.3493 30.4803C27.615 30.7547 27.962 30.8927 28.4019 30.8927C28.7315 30.8927 29.0146 30.8099 29.2527 30.6458C29.4908 30.4818 29.6462 30.2436 29.7289 29.9417H30.4883C30.3968 30.4179 30.1674 30.8113 29.8015 31.1119C29.4357 31.4139 28.987 31.5605 28.4571 31.5605C27.991 31.5605 27.5874 31.4691 27.2404 31.2672C26.8934 31.0654 26.619 30.791 26.4259 30.4251C26.2342 30.0593 26.1427 29.6484 26.1427 29.1721C26.1427 28.6959 26.2342 28.285 26.4171 27.9191ZM29.7928 28.6959C29.7565 28.3024 29.6012 27.9917 29.3442 27.7725C29.0887 27.5533 28.7591 27.4429 28.3656 27.4429C28.0084 27.4429 27.6977 27.562 27.432 27.7899C27.1576 28.028 27.011 28.33 26.9747 28.6959H29.7914H29.7928ZM34.7627 31.2571C34.4157 31.0553 34.1413 30.7809 33.9482 30.415C33.7464 30.0578 33.6549 29.6469 33.6549 29.1707C33.6549 28.6945 33.7464 28.2923 33.9482 27.9264C34.1398 27.5692 34.4143 27.2861 34.7627 27.0843C35.1112 26.8825 35.5133 26.7823 35.9707 26.7823C36.428 26.7823 36.8215 26.8825 37.1685 27.0843C37.5155 27.2861 37.7899 27.5692 37.9918 27.9264C38.1834 28.2923 38.285 28.7032 38.285 29.1707C38.285 29.6382 38.1849 30.0578 37.9918 30.415C37.7899 30.7809 37.5155 31.0553 37.1685 31.2571C36.8215 31.4589 36.4179 31.5591 35.9707 31.5591C35.5235 31.5591 35.1112 31.4589 34.7627 31.2571ZM36.7751 30.672C37.0132 30.5253 37.1961 30.325 37.3239 30.0593C37.4516 29.8037 37.5155 29.5017 37.5155 29.1721C37.5155 28.8426 37.4516 28.5507 37.3239 28.285C37.1961 28.0295 37.0132 27.819 36.7751 27.6723C36.5369 27.5257 36.2727 27.4531 35.9707 27.4531C35.6687 27.4531 35.3943 27.5257 35.1562 27.6723C34.9181 27.819 34.7453 28.0295 34.6161 28.285C34.4883 28.5507 34.4244 28.8426 34.4244 29.1721C34.4244 29.5017 34.4883 29.8037 34.6161 30.0593C34.7438 30.325 34.9181 30.5253 35.1562 30.672C35.3943 30.8186 35.6585 30.8912 35.9707 30.8912C36.2829 30.8912 36.5384 30.8186 36.7751 30.672ZM39.4016 26.8389V26.3177C39.4016 25.9053 39.493 25.6048 39.6847 25.403C39.8763 25.2012 40.187 25.101 40.6183 25.101H41.4778V25.7877H40.6633C40.4803 25.7877 40.3438 25.8342 40.2698 25.9068C40.187 25.9896 40.1507 26.1173 40.1507 26.3003V26.8404H41.4676V27.5271H40.1507V31.5054H39.4001V27.5271H38.558V26.8404H39.4001L39.4016 26.8389ZM46.7482 25.101C47.4248 25.101 47.946 25.2476 48.3119 25.5395C48.6778 25.8328 48.8694 26.2436 48.8694 26.7562C48.8694 27.1409 48.7693 27.4516 48.5762 27.6985C48.3743 27.9453 48.0912 28.1195 47.7253 28.211C48.6589 28.3939 49.1337 28.8963 49.1337 29.7384C49.1337 30.2872 48.9319 30.7257 48.5297 31.0378C48.1275 31.35 47.5598 31.5039 46.8106 31.5039H44.4774V25.101H46.7453H46.7482ZM45.276 27.8814H46.7845C47.1867 27.8814 47.5076 27.7899 47.7355 27.607C47.9547 27.424 48.0738 27.1772 48.0738 26.8476C48.0738 26.5181 47.9547 26.2799 47.7355 26.097C47.5163 25.9141 47.1954 25.8226 46.7845 25.8226H45.276V27.8814ZM45.276 30.7809H46.8121C47.297 30.7809 47.6716 30.6894 47.9286 30.4977C48.1841 30.3148 48.3221 30.0491 48.3221 29.7108C48.3221 29.3536 48.1841 29.0792 47.9286 28.8876C47.6629 28.6959 47.2883 28.5943 46.8121 28.5943H45.276V30.7809ZM54.0847 26.8389V31.5039H53.4357L53.3355 30.8825C52.9783 31.3398 52.4847 31.5591 51.8444 31.5591C51.2869 31.5591 50.8382 31.395 50.5086 31.0466C50.1704 30.7083 50.0063 30.1681 50.0063 29.4364V26.8389H50.7569V29.3914C50.7569 29.8763 50.8571 30.2422 51.0676 30.4977C51.2782 30.7533 51.5801 30.8723 51.9736 30.8723C52.3947 30.8723 52.733 30.7257 52.9711 30.415C53.2092 30.113 53.337 29.7021 53.337 29.1707V26.8375H54.0876L54.0847 26.8389ZM55.692 29.9678C55.7007 30.2509 55.8197 30.4803 56.0578 30.6545C56.2959 30.8375 56.5979 30.9202 56.9725 30.9202C57.3021 30.9202 57.5678 30.8564 57.7682 30.7286C57.97 30.6008 58.0789 30.4266 58.0789 30.2073C58.0789 30.0244 58.0237 29.8865 57.9322 29.7863C57.8321 29.6948 57.7043 29.6222 57.5475 29.5845C57.3921 29.5482 57.1729 29.5119 56.8883 29.4741C56.4861 29.4277 56.1566 29.3638 55.901 29.2825C55.6455 29.2099 55.435 29.0807 55.2796 28.9079C55.1155 28.7337 55.0415 28.4956 55.0415 28.1848C55.0415 27.9104 55.1141 27.6723 55.2709 27.4531C55.4263 27.2426 55.6368 27.0785 55.9112 26.9594C56.1769 26.8404 56.4789 26.7765 56.8172 26.7765C57.366 26.7765 57.8045 26.9043 58.1529 27.1612C58.4999 27.4168 58.693 27.7827 58.7293 28.2589H57.9787C57.9424 28.0208 57.8234 27.8204 57.6215 27.6549C57.411 27.4995 57.1555 27.4168 56.8448 27.4168C56.5341 27.4168 56.2684 27.4894 56.0767 27.6186C55.8749 27.7464 55.7834 27.9206 55.7834 28.1311C55.7834 28.2952 55.8299 28.4142 55.9214 28.497C56.0128 28.5885 56.1232 28.6436 56.2684 28.6712C56.415 28.7075 56.6342 28.7351 56.9275 28.7714C57.3297 28.8266 57.668 28.8905 57.9337 28.9732C58.1994 29.0647 58.4099 29.2012 58.574 29.3856C58.7381 29.5772 58.8208 29.8342 58.8208 30.1536C58.8208 30.4368 58.7381 30.6836 58.574 30.8941C58.4099 31.1133 58.1805 31.2789 57.9061 31.3878C57.623 31.5068 57.3108 31.562 56.9725 31.562C56.3598 31.562 55.8662 31.424 55.5003 31.1409C55.1344 30.8665 54.9428 30.473 54.9428 29.9707H55.6934L55.692 29.9678ZM60.3932 25.175C60.4847 25.2665 60.5297 25.3856 60.5297 25.522C60.5297 25.6687 60.4833 25.7776 60.3932 25.869C60.3018 25.9605 60.1827 26.0055 60.0462 26.0055C59.8996 26.0055 59.7907 25.9605 59.6992 25.869C59.6077 25.7776 59.5627 25.6672 59.5627 25.522C59.5627 25.3841 59.6077 25.2665 59.6992 25.175C59.7907 25.0836 59.901 25.0371 60.0462 25.0371C60.1842 25.0371 60.3018 25.0836 60.3932 25.175ZM59.6702 26.8404H60.4208V31.5054H59.6702V26.8404ZM65.0974 27.2977C65.4444 27.6447 65.6186 28.1761 65.6186 28.9079V31.5054H64.868V28.9529C64.868 28.4767 64.7577 28.1108 64.5384 27.8553C64.3192 27.5997 64.0085 27.4705 63.6049 27.4705C63.1664 27.4705 62.8179 27.6259 62.5711 27.9279C62.3156 28.2386 62.1965 28.6509 62.1965 29.1721V31.5054H61.4459V26.8404H62.0949L62.195 27.472C62.5421 27.0146 63.0546 26.7867 63.7312 26.7867C64.2989 26.7867 64.7461 26.9609 65.0945 27.2992L65.0974 27.2977ZM66.6843 27.9191C66.8673 27.562 67.133 27.2876 67.4713 27.0872C67.8009 26.8854 68.1842 26.7852 68.6241 26.7852C69.064 26.7852 69.4285 26.8767 69.758 27.0509C70.0876 27.2338 70.3432 27.4894 70.5363 27.819C70.7192 28.1573 70.8194 28.5507 70.8383 28.9994C70.8383 29.072 70.8295 29.1736 70.8194 29.3188H67.1969V29.3827C67.2056 29.84 67.3435 30.2059 67.6179 30.4803C67.8836 30.7547 68.2306 30.8927 68.6705 30.8927C69.0001 30.8927 69.2833 30.8099 69.5214 30.6458C69.7595 30.4818 69.9148 30.2436 69.9976 29.9417H70.7569C70.6655 30.4179 70.4375 30.8113 70.0702 31.1119C69.7043 31.4139 69.2557 31.5605 68.7257 31.5605C68.2597 31.5605 67.856 31.4691 67.509 31.2672C67.162 31.0654 66.8876 30.791 66.6945 30.4251C66.5029 30.0593 66.4114 29.6484 66.4114 29.1721C66.4114 28.6959 66.5029 28.285 66.6858 27.9191H66.6843ZM70.06 28.6959C70.0237 28.3024 69.8684 27.9917 69.6114 27.7725C69.3559 27.5533 69.0263 27.4429 68.6328 27.4429C68.2756 27.4429 67.9649 27.562 67.6992 27.7899C67.4248 28.028 67.2782 28.33 67.2419 28.6959H70.0586H70.06ZM72.2611 29.9678C72.2698 30.2509 72.3889 30.4803 72.627 30.6545C72.8651 30.8375 73.1671 30.9202 73.5417 30.9202C73.8713 30.9202 74.137 30.8564 74.3373 30.7286C74.5392 30.6008 74.6481 30.4266 74.6481 30.2073C74.6481 30.0244 74.5929 29.8865 74.5014 29.7863C74.4012 29.6948 74.272 29.6222 74.1167 29.5845C73.9613 29.5482 73.7421 29.5119 73.4575 29.4741C73.0553 29.4277 72.7257 29.3638 72.4702 29.2825C72.2147 29.2099 72.0041 29.0807 71.8488 28.9079C71.6847 28.7337 71.6107 28.4956 71.6107 28.1848C71.6107 27.9104 71.6833 27.6723 71.8386 27.4531C71.994 27.2426 72.2045 27.0785 72.4789 26.9594C72.7446 26.8404 73.0466 26.7765 73.3849 26.7765C73.9337 26.7765 74.3722 26.9043 74.7206 27.1612C75.0677 27.4168 75.2608 27.7827 75.2971 28.2589H74.5464C74.5101 28.0208 74.3911 27.8204 74.1893 27.6549C73.9787 27.4995 73.7232 27.4168 73.4125 27.4168C73.1018 27.4168 72.8361 27.4894 72.6444 27.6186C72.4426 27.7464 72.3511 27.9206 72.3511 28.1311C72.3511 28.2952 72.3976 28.4142 72.4891 28.497C72.5805 28.5885 72.6909 28.6436 72.8361 28.6712C72.9827 28.7075 73.202 28.7351 73.4952 28.7714C73.8974 28.8266 74.2357 28.8905 74.5014 28.9732C74.7671 29.0647 74.9776 29.2012 75.1417 29.3856C75.3058 29.5772 75.3885 29.8342 75.3885 30.1536C75.3885 30.4368 75.3058 30.6836 75.1417 30.8941C74.9776 31.1133 74.7482 31.2789 74.4738 31.3878C74.1907 31.5068 73.8785 31.562 73.5403 31.562C72.9275 31.562 72.4339 31.424 72.068 31.1409C71.7021 30.8665 71.5105 30.473 71.5105 29.9707H72.2611V29.9678ZM76.7359 29.9678C76.7446 30.2509 76.8637 30.4803 77.1018 30.6545C77.3399 30.8375 77.6419 30.9202 78.0165 30.9202C78.3461 30.9202 78.6118 30.8564 78.8121 30.7286C79.0139 30.6008 79.1228 30.4266 79.1228 30.2073C79.1228 30.0244 79.0677 29.8865 78.9762 29.7863C78.876 29.6948 78.7468 29.6222 78.5914 29.5845C78.4361 29.5482 78.2168 29.5119 77.9323 29.4741C77.5301 29.4277 77.2005 29.3638 76.945 29.2825C76.6894 29.2099 76.4789 29.0807 76.3236 28.9079C76.1595 28.7337 76.0854 28.4956 76.0854 28.1848C76.0854 27.9104 76.158 27.6723 76.3148 27.4531C76.4702 27.2426 76.6807 27.0785 76.9551 26.9594C77.2208 26.8404 77.5228 26.7765 77.8611 26.7765C78.4099 26.7765 78.8484 26.9043 79.1969 27.1612C79.5439 27.4168 79.737 27.7827 79.7733 28.2589H79.0227C78.9864 28.0208 78.8673 27.8204 78.6655 27.6549C78.455 27.4995 78.1994 27.4168 77.8887 27.4168C77.578 27.4168 77.3123 27.4894 77.1207 27.6186C76.9188 27.7464 76.8274 27.9206 76.8274 28.1311C76.8274 28.2952 76.8724 28.4142 76.9639 28.497C77.0553 28.5885 77.1657 28.6436 77.3108 28.6712C77.4575 28.7075 77.6767 28.7351 77.97 28.7714C78.3722 28.8266 78.7105 28.8905 78.9762 28.9732C79.2419 29.0647 79.4524 29.2012 79.6165 29.3856C79.7805 29.5772 79.8633 29.8342 79.8633 30.1536C79.8633 30.4368 79.7805 30.6836 79.6165 30.8941C79.4524 31.1133 79.223 31.2789 78.9486 31.3878C78.6655 31.5068 78.3548 31.562 78.015 31.562C77.4023 31.562 76.9087 31.424 76.5428 31.1409C76.1769 30.8665 75.9853 30.473 75.9853 29.9707H76.7359V29.9678Z" fill="black"/>
</svg>
